<svg xmlns="http://www.w3.org/2000/svg" width="80" height="80" viewBox="0 0 80 80">
    <g fill="none" fill-rule="evenodd" transform="translate(-.875 -.656)">
        <path fill="#002855" fill-rule="nonzero" d="M40.875 19.105a1.38 1.38 0 0 1-1.38-1.38V14.45a1.38 1.38 0 0 1 2.76 0v3.276a1.38 1.38 0 0 1-1.38 1.38zM71.22 33.898a1.38 1.38 0 0 1-1.38-1.38v-5.655H53.29a1.38 1.38 0 0 1 0-2.759h17.93c.762 0 1.38.618 1.38 1.38v7.034a1.38 1.38 0 0 1-1.38 1.38z"/>
        <path fill="#F5B14C" fill-rule="nonzero" d="M40.536 62.656c2.466 0 4.893 1.093 4.893 3.707 0 2.41-2.87 3.338-3.486 4.209-.463.648-.308 1.558-1.58 1.558-.828 0-1.233-.648-1.233-1.241 0-2.208 3.37-2.708 3.37-4.525 0-1-.691-1.594-1.848-1.594-2.465 0-1.502 2.446-3.37 2.446-.674 0-1.252-.39-1.252-1.13 0-1.818 2.156-3.43 4.506-3.43zm-.096 10.678c.866 0 1.58.685 1.58 1.52 0 .836-.713 1.521-1.58 1.521-.866 0-1.58-.684-1.58-1.52s.714-1.521 1.58-1.521zM71.536 35.656c2.466 0 4.893 1.093 4.893 3.707 0 2.41-2.87 3.338-3.486 4.209-.463.648-.308 1.558-1.58 1.558-.828 0-1.233-.648-1.233-1.241 0-2.208 3.37-2.708 3.37-4.525 0-1-.691-1.594-1.848-1.594-2.465 0-1.502 2.446-3.37 2.446-.674 0-1.252-.39-1.252-1.13 0-1.818 2.156-3.43 4.506-3.43zm-.096 10.678c.866 0 1.58.685 1.58 1.52 0 .836-.713 1.521-1.58 1.521-.866 0-1.58-.684-1.58-1.52s.714-1.521 1.58-1.521z"/>
        <path fill="#002855" fill-rule="nonzero" d="M40.875 24.105a1.38 1.38 0 0 1-1.38-1.38V14.45a1.38 1.38 0 0 1 2.76 0v8.276a1.38 1.38 0 0 1-1.38 1.38zM40.875 37.898a1.38 1.38 0 0 1-1.38-1.38v-5.517a1.38 1.38 0 0 1 2.76 0v5.517a1.38 1.38 0 0 1-1.38 1.38zM31.22 43.415H20.185a1.38 1.38 0 0 1 0-2.759H31.22a1.38 1.38 0 0 1 0 2.759zM61.565 43.415H50.53a1.38 1.38 0 0 1 0-2.759h11.035a1.38 1.38 0 0 1 0 2.759zM10.53 65.484a1.38 1.38 0 0 1-1.38-1.38V47.554a1.38 1.38 0 0 1 2.76 0v16.552a1.38 1.38 0 0 1-1.38 1.379zM32.6 73.76H18.805a1.38 1.38 0 0 1 0-2.76h13.793a1.38 1.38 0 0 1 0 2.76zM71.22 65.484a1.38 1.38 0 0 1-1.38-1.38V53.554a1.38 1.38 0 0 1 2.76 0v10.552a1.38 1.38 0 0 1-1.38 1.379z"/>
        <path fill="#0067df" fill-rule="nonzero" d="M29.84.656h22.07a2.758 2.758 0 0 1 2.758 2.759v8.276a2.758 2.758 0 0 1-2.759 2.758H29.84a2.758 2.758 0 0 1-2.758-2.758V3.415A2.758 2.758 0 0 1 29.84.656z"/>
        <path fill="#B9D9EB" d="M33.978 36.518h13.794a2.758 2.758 0 0 1 2.758 2.759v5.517a2.758 2.758 0 0 1-2.758 2.759H33.978a2.758 2.758 0 0 1-2.758-2.759v-5.517a2.758 2.758 0 0 1 2.758-2.759z"/>
        <path fill="#F27E7E" d="M3.634 36.518h13.793a2.758 2.758 0 0 1 2.758 2.759v5.517a2.758 2.758 0 0 1-2.758 2.759H3.634a2.758 2.758 0 0 1-2.759-2.759v-5.517a2.758 2.758 0 0 1 2.759-2.759z"/>
        <path fill="#F5B14C" d="M40.875 19.967l-16.552 5.517L40.875 31l16.552-5.517z"/>
        <circle cx="10.53" cy="72.38" r="8.276" fill="#B9D9EB"/>
        <circle cx="71.22" cy="72.38" r="8.276" fill="#0067df"/>
    </g>
</svg>
