<svg xmlns="http://www.w3.org/2000/svg" width="80" height="80" viewBox="0 0 80 80">
    <g fill="none" fill-rule="evenodd">
        <g fill="#002855" fill-rule="nonzero">
            <path d="M40 23.448a1.38 1.38 0 0 1-1.38-1.38v-8.275a1.38 1.38 0 0 1 2.76 0v8.276A1.38 1.38 0 0 1 40 23.45zM39.504 37.62a1.38 1.38 0 0 1-1.379-1.38v-5.517a1.38 1.38 0 0 1 2.759 0v5.517a1.38 1.38 0 0 1-1.38 1.38zM30.345 42.759H19.31a1.38 1.38 0 0 1 0-2.76h11.035a1.38 1.38 0 0 1 0 2.76zM60.69 42.759H49.655a1.38 1.38 0 0 1 0-2.759H60.69a1.38 1.38 0 0 1 0 2.759zM39.504 64.654a1.38 1.38 0 0 1-1.379-1.38v-16.55a1.38 1.38 0 0 1 2.759 0v16.55a1.38 1.38 0 0 1-1.38 1.38zM70.345 37.241a1.38 1.38 0 0 1-1.38-1.379v-9.655H52.414a1.38 1.38 0 0 1 0-2.759h17.93c.762 0 1.38.618 1.38 1.38v11.034a1.38 1.38 0 0 1-1.38 1.38z"/>
        </g>
        <path fill="#0067df" fill-rule="nonzero" d="M28.965 0h22.07a2.758 2.758 0 0 1 2.758 2.759v8.276a2.758 2.758 0 0 1-2.759 2.758H28.965a2.758 2.758 0 0 1-2.758-2.758V2.759A2.758 2.758 0 0 1 28.965 0z"/>
        <path fill="#B9D9EB" d="M32.759 36h13.793a2.758 2.758 0 0 1 2.758 2.759v5.517a2.758 2.758 0 0 1-2.758 2.758H32.759A2.758 2.758 0 0 1 30 44.276v-5.517A2.758 2.758 0 0 1 32.759 36z"/>
        <path fill="#F27E7E" d="M2.759 35.862h13.793a2.758 2.758 0 0 1 2.758 2.759v5.517a2.758 2.758 0 0 1-2.758 2.758H2.759A2.758 2.758 0 0 1 0 44.138v-5.517a2.758 2.758 0 0 1 2.759-2.759z"/>
        <path fill="#6FCF97" fill-rule="nonzero" d="M63.448 35.862h13.793A2.758 2.758 0 0 1 80 38.621v5.517a2.758 2.758 0 0 1-2.759 2.758H63.448a2.758 2.758 0 0 1-2.758-2.758V38.62a2.758 2.758 0 0 1 2.758-2.759z"/>
        <path fill="#F5B14C" d="M40 19.31l-16.552 5.518L40 30.345l16.552-5.517z"/>
        <circle cx="39.276" cy="71.276" r="8.276" fill="#0067df"/>
    </g>
</svg>
